<svg width="1006" height="1371" viewBox="0 0 1006 1371" fill="none" xmlns="http://www.w3.org/2000/svg">
<rect x="69" y="1006" width="879" height="364" rx="20" fill="#2C2C2C" stroke="#414141" stroke-width="2"/>
<circle cx="503" cy="591" r="130" fill="black" stroke="#3A3A3A" stroke-width="2"/>
<g clip-path="url(#clip0_9_205)">
<path d="M549.271 566.61C552.12 566.61 554.43 568.931 554.43 571.794C554.43 574.658 552.12 576.979 549.271 576.979C546.422 576.979 544.113 574.658 544.113 571.794C544.113 568.931 546.422 566.61 549.271 566.61ZM569.523 588.245C569.005 605.466 555.923 628.229 538.189 634.082C517.472 640.919 501.741 630.66 496.755 618.634C492.871 609.264 495.806 598.055 503.056 593.31C509.178 589.304 520.579 588.245 530.16 594.576C526.794 585.713 517.73 579.888 509.703 578.115C501.675 576.343 493.388 578.369 487.432 581.408C495.072 572.924 512.958 564.686 532.405 575.077C545.439 582.041 551.05 591.79 556.575 604.959C571.076 582.674 560.977 555.83 543.368 539.876C525.414 523.61 501.157 517.084 482.599 518.102C488.724 521.901 495.921 527.324 502.569 533.671C473.189 529.999 448.977 536.71 434 557.181C442.367 555.522 453.399 554.48 464.381 555.025C442.977 570.18 430.547 595.673 436.866 622.276C440.728 615.493 446.504 607.345 453.378 599.961C451.264 619.816 454.199 646.659 479.602 664C478.305 658.556 477.256 651.935 476.777 644.927C488.66 654.244 505.91 661.924 527.312 656.62C565.12 647.25 575.22 610.531 569.523 588.245Z" fill="#F36118"/>
</g>
<rect x="1" y="27" width="212" height="86" rx="15" fill="black" stroke="#3A3A3A" stroke-width="2"/>
<g filter="url(#filter0_d_9_205)">
<path d="M64.1667 92.625V87.7083C64.1667 85.1004 63.1307 82.5992 61.2866 80.7551C59.4424 78.911 56.9413 77.875 54.3333 77.875H34.6667C32.0587 77.875 29.5576 78.911 27.7134 80.7551C25.8693 82.5992 24.8333 85.1004 24.8333 87.7083V92.625M54.3333 58.2083C54.3333 63.6391 49.9308 68.0417 44.5 68.0417C39.0692 68.0417 34.6667 63.6391 34.6667 58.2083C34.6667 52.7775 39.0692 48.375 44.5 48.375C49.9308 48.375 54.3333 52.7775 54.3333 58.2083Z" stroke="#F36017" stroke-width="4" stroke-linecap="round" stroke-linejoin="round"/>
</g>
<path d="M112.182 73.2955V57.8182H116.205V84H112.182V79.5682H111.909C111.295 80.8977 110.341 82.0284 109.045 82.9602C107.75 83.8807 106.114 84.3409 104.136 84.3409C102.5 84.3409 101.045 83.983 99.7727 83.267C98.5 82.5398 97.5 81.4489 96.7727 79.9943C96.0455 78.5284 95.6818 76.6818 95.6818 74.4545V57.8182H99.7045V74.1818C99.7045 76.0909 100.239 77.6136 101.307 78.75C102.386 79.8864 103.761 80.4545 105.432 80.4545C106.432 80.4545 107.449 80.1989 108.483 79.6875C109.528 79.1761 110.403 78.392 111.108 77.3352C111.824 76.2784 112.182 74.9318 112.182 73.2955ZM142.118 63.6818L138.504 64.7045C138.277 64.1023 137.942 63.517 137.499 62.9489C137.067 62.3693 136.476 61.892 135.726 61.517C134.976 61.142 134.016 60.9545 132.845 60.9545C131.243 60.9545 129.908 61.3239 128.839 62.0625C127.783 62.7898 127.254 63.7159 127.254 64.8409C127.254 65.8409 127.618 66.6307 128.345 67.2102C129.072 67.7898 130.209 68.2727 131.754 68.6591L135.641 69.6136C137.982 70.1818 139.726 71.0511 140.874 72.2216C142.021 73.3807 142.595 74.875 142.595 76.7045C142.595 78.2045 142.163 79.5455 141.3 80.7273C140.447 81.9091 139.254 82.8409 137.72 83.5227C136.186 84.2045 134.402 84.5455 132.368 84.5455C129.697 84.5455 127.487 83.9659 125.737 82.8068C123.987 81.6477 122.879 79.9545 122.413 77.7273L126.232 76.7727C126.595 78.1818 127.283 79.2386 128.294 79.9432C129.317 80.6477 130.652 81 132.3 81C134.175 81 135.663 80.6023 136.766 79.8068C137.879 79 138.436 78.0341 138.436 76.9091C138.436 76 138.118 75.2386 137.482 74.625C136.845 74 135.868 73.5341 134.55 73.2273L130.186 72.2045C127.788 71.6364 126.027 70.7557 124.902 69.5625C123.788 68.358 123.232 66.8523 123.232 65.0455C123.232 63.5682 123.646 62.2614 124.476 61.125C125.317 59.9886 126.459 59.0966 127.902 58.4489C129.357 57.8011 131.004 57.4773 132.845 57.4773C135.436 57.4773 137.47 58.0455 138.947 59.1818C140.436 60.3182 141.493 61.8182 142.118 63.6818ZM159.628 84.5455C157.105 84.5455 154.929 83.9886 153.099 82.875C151.281 81.75 149.878 80.1818 148.889 78.1705C147.912 76.1477 147.423 73.7955 147.423 71.1136C147.423 68.4318 147.912 66.0682 148.889 64.0227C149.878 61.9659 151.253 60.3636 153.014 59.2159C154.787 58.0568 156.855 57.4773 159.219 57.4773C160.582 57.4773 161.929 57.7045 163.259 58.1591C164.588 58.6136 165.798 59.3523 166.889 60.375C167.98 61.3864 168.849 62.7273 169.497 64.3977C170.145 66.0682 170.469 68.125 170.469 70.5682V72.2727H150.287V68.7955H166.378C166.378 67.3182 166.082 66 165.491 64.8409C164.912 63.6818 164.082 62.767 163.003 62.0966C161.935 61.4261 160.673 61.0909 159.219 61.0909C157.616 61.0909 156.23 61.4886 155.06 62.2841C153.901 63.0682 153.009 64.0909 152.384 65.3523C151.759 66.6136 151.446 67.9659 151.446 69.4091V71.7273C151.446 73.7045 151.787 75.3807 152.469 76.7557C153.162 78.1193 154.122 79.1591 155.349 79.875C156.577 80.5795 158.003 80.9318 159.628 80.9318C160.685 80.9318 161.639 80.7841 162.491 80.4886C163.355 80.1818 164.099 79.7273 164.724 79.125C165.349 78.5114 165.832 77.75 166.173 76.8409L170.06 77.9318C169.651 79.25 168.963 80.4091 167.997 81.4091C167.031 82.3977 165.838 83.1705 164.418 83.7273C162.997 84.2727 161.401 84.5455 159.628 84.5455ZM176.588 84V57.8182H180.474V61.7727H180.747C181.224 60.4773 182.088 59.4261 183.338 58.6193C184.588 57.8125 185.997 57.4091 187.565 57.4091C187.861 57.4091 188.23 57.4148 188.673 57.4261C189.116 57.4375 189.452 57.4545 189.679 57.4773V61.5682C189.543 61.5341 189.23 61.483 188.741 61.4148C188.264 61.3352 187.759 61.2955 187.224 61.2955C185.952 61.2955 184.815 61.5625 183.815 62.0966C182.827 62.6193 182.043 63.3466 181.463 64.2784C180.895 65.1989 180.611 66.25 180.611 67.4318V84H176.588Z" fill="white"/>
<rect x="136" y="1069" width="254" height="110" rx="15" fill="black" stroke="#3A3A3A" stroke-width="2"/>
<path d="M268.659 1141H264.227L277.045 1106.09H281.409L294.227 1141H289.795L279.364 1111.61H279.091L268.659 1141ZM270.295 1127.36H288.159V1131.11H270.295V1127.36ZM299.119 1150.82V1114.82H303.006V1118.98H303.483C303.778 1118.52 304.188 1117.94 304.71 1117.24C305.244 1116.52 306.006 1115.89 306.994 1115.33C307.994 1114.76 309.347 1114.48 311.051 1114.48C313.256 1114.48 315.199 1115.03 316.881 1116.13C318.563 1117.23 319.875 1118.8 320.818 1120.82C321.761 1122.84 322.233 1125.23 322.233 1127.98C322.233 1130.75 321.761 1133.15 320.818 1135.19C319.875 1137.21 318.568 1138.78 316.898 1139.89C315.227 1140.99 313.301 1141.55 311.119 1141.55C309.438 1141.55 308.091 1141.27 307.08 1140.71C306.068 1140.14 305.29 1139.5 304.744 1138.78C304.199 1138.06 303.778 1137.45 303.483 1136.98H303.142V1150.82H299.119ZM303.074 1127.91C303.074 1129.89 303.364 1131.63 303.943 1133.14C304.523 1134.64 305.369 1135.82 306.483 1136.67C307.597 1137.51 308.96 1137.93 310.574 1137.93C312.256 1137.93 313.659 1137.49 314.784 1136.6C315.92 1135.7 316.773 1134.5 317.341 1132.99C317.92 1131.47 318.21 1129.77 318.21 1127.91C318.21 1126.07 317.926 1124.41 317.358 1122.93C316.801 1121.44 315.955 1120.27 314.818 1119.4C313.693 1118.53 312.278 1118.09 310.574 1118.09C308.938 1118.09 307.563 1118.51 306.449 1119.34C305.335 1120.15 304.494 1121.3 303.926 1122.78C303.358 1124.24 303.074 1125.95 303.074 1127.91ZM328.369 1150.82V1114.82H332.256V1118.98H332.733C333.028 1118.52 333.438 1117.94 333.96 1117.24C334.494 1116.52 335.256 1115.89 336.244 1115.33C337.244 1114.76 338.597 1114.48 340.301 1114.48C342.506 1114.48 344.449 1115.03 346.131 1116.13C347.813 1117.23 349.125 1118.8 350.068 1120.82C351.011 1122.84 351.483 1125.23 351.483 1127.98C351.483 1130.75 351.011 1133.15 350.068 1135.19C349.125 1137.21 347.818 1138.78 346.148 1139.89C344.477 1140.99 342.551 1141.55 340.369 1141.55C338.688 1141.55 337.341 1141.27 336.33 1140.71C335.318 1140.14 334.54 1139.5 333.994 1138.78C333.449 1138.06 333.028 1137.45 332.733 1136.98H332.392V1150.82H328.369ZM332.324 1127.91C332.324 1129.89 332.614 1131.63 333.193 1133.14C333.773 1134.64 334.619 1135.82 335.733 1136.67C336.847 1137.51 338.21 1137.93 339.824 1137.93C341.506 1137.93 342.909 1137.49 344.034 1136.6C345.17 1135.7 346.023 1134.5 346.591 1132.99C347.17 1131.47 347.46 1129.77 347.46 1127.91C347.46 1126.07 347.176 1124.41 346.608 1122.93C346.051 1121.44 345.205 1120.27 344.068 1119.4C342.943 1118.53 341.528 1118.09 339.824 1118.09C338.188 1118.09 336.813 1118.51 335.699 1119.34C334.585 1120.15 333.744 1121.3 333.176 1122.78C332.608 1124.24 332.324 1125.95 332.324 1127.91Z" fill="white"/>
<rect x="1" y="1" width="269" height="112" rx="15" fill="black" stroke="#3A3A3A" stroke-width="2"/>
<g filter="url(#filter1_d_9_205)">
<path d="M84.1667 78.625V73.7083C84.1667 71.1004 83.1307 68.5992 81.2865 66.7551C79.4424 64.911 76.9413 63.875 74.3333 63.875H54.6667C52.0587 63.875 49.5576 64.911 47.7134 66.7551C45.8693 68.5992 44.8333 71.1004 44.8333 73.7083V78.625M74.3333 44.2083C74.3333 49.6391 69.9308 54.0417 64.5 54.0417C59.0692 54.0417 54.6667 49.6391 54.6667 44.2083C54.6667 38.7775 59.0692 34.375 64.5 34.375C69.9308 34.375 74.3333 38.7775 74.3333 44.2083Z" stroke="#F36017" stroke-width="4" stroke-linecap="round" stroke-linejoin="round"/>
</g>
<path d="M153.136 39.0909H157.364V62.2045C157.364 64.5909 156.801 66.7216 155.676 68.5966C154.563 70.4602 152.989 71.9318 150.955 73.0114C148.92 74.0795 146.534 74.6136 143.795 74.6136C141.057 74.6136 138.67 74.0795 136.636 73.0114C134.602 71.9318 133.023 70.4602 131.898 68.5966C130.784 66.7216 130.227 64.5909 130.227 62.2045V39.0909H134.455V61.8636C134.455 63.5682 134.83 65.0852 135.58 66.4148C136.33 67.733 137.398 68.7727 138.784 69.5341C140.182 70.2841 141.852 70.6591 143.795 70.6591C145.739 70.6591 147.409 70.2841 148.807 69.5341C150.205 68.7727 151.273 67.733 152.011 66.4148C152.761 65.0852 153.136 63.5682 153.136 61.8636V39.0909ZM183.805 53.6818L180.192 54.7045C179.964 54.1023 179.629 53.517 179.186 52.9489C178.754 52.3693 178.163 51.892 177.413 51.517C176.663 51.142 175.703 50.9545 174.533 50.9545C172.93 50.9545 171.595 51.3239 170.527 52.0625C169.47 52.7898 168.942 53.7159 168.942 54.8409C168.942 55.8409 169.305 56.6307 170.033 57.2102C170.76 57.7898 171.896 58.2727 173.442 58.6591L177.328 59.6136C179.669 60.1818 181.413 61.0511 182.561 62.2216C183.709 63.3807 184.283 64.875 184.283 66.7045C184.283 68.2045 183.851 69.5455 182.987 70.7273C182.135 71.9091 180.942 72.8409 179.408 73.5227C177.874 74.2045 176.089 74.5455 174.055 74.5455C171.385 74.5455 169.175 73.9659 167.425 72.8068C165.675 71.6477 164.567 69.9545 164.101 67.7273L167.919 66.7727C168.283 68.1818 168.97 69.2386 169.982 69.9432C171.004 70.6477 172.339 71 173.987 71C175.862 71 177.351 70.6023 178.453 69.8068C179.567 69 180.124 68.0341 180.124 66.9091C180.124 66 179.805 65.2386 179.169 64.625C178.533 64 177.555 63.5341 176.237 63.2273L171.874 62.2045C169.476 61.6364 167.714 60.7557 166.589 59.5625C165.476 58.358 164.919 56.8523 164.919 55.0455C164.919 53.5682 165.334 52.2614 166.163 51.125C167.004 49.9886 168.146 49.0966 169.589 48.4489C171.044 47.8011 172.692 47.4773 174.533 47.4773C177.124 47.4773 179.158 48.0455 180.635 49.1818C182.124 50.3182 183.18 51.8182 183.805 53.6818ZM201.315 74.5455C198.793 74.5455 196.616 73.9886 194.787 72.875C192.969 71.75 191.565 70.1818 190.577 68.1705C189.599 66.1477 189.111 63.7955 189.111 61.1136C189.111 58.4318 189.599 56.0682 190.577 54.0227C191.565 51.9659 192.94 50.3636 194.702 49.2159C196.474 48.0568 198.543 47.4773 200.906 47.4773C202.27 47.4773 203.616 47.7045 204.946 48.1591C206.276 48.6136 207.486 49.3523 208.577 50.375C209.668 51.3864 210.537 52.7273 211.185 54.3977C211.832 56.0682 212.156 58.125 212.156 60.5682V62.2727H191.974V58.7955H208.065C208.065 57.3182 207.77 56 207.179 54.8409C206.599 53.6818 205.77 52.767 204.69 52.0966C203.622 51.4261 202.361 51.0909 200.906 51.0909C199.304 51.0909 197.918 51.4886 196.747 52.2841C195.588 53.0682 194.696 54.0909 194.071 55.3523C193.446 56.6136 193.134 57.9659 193.134 59.4091V61.7273C193.134 63.7045 193.474 65.3807 194.156 66.7557C194.849 68.1193 195.81 69.1591 197.037 69.875C198.264 70.5795 199.69 70.9318 201.315 70.9318C202.372 70.9318 203.327 70.7841 204.179 70.4886C205.043 70.1818 205.787 69.7273 206.412 69.125C207.037 68.5114 207.52 67.75 207.861 66.8409L211.747 67.9318C211.338 69.25 210.651 70.4091 209.685 71.4091C208.719 72.3977 207.526 73.1705 206.105 73.7273C204.685 74.2727 203.088 74.5455 201.315 74.5455ZM218.276 74V47.8182H222.162V51.7727H222.435C222.912 50.4773 223.776 49.4261 225.026 48.6193C226.276 47.8125 227.685 47.4091 229.253 47.4091C229.548 47.4091 229.918 47.4148 230.361 47.4261C230.804 47.4375 231.139 47.4545 231.366 47.4773V51.5682C231.23 51.5341 230.918 51.483 230.429 51.4148C229.952 51.3352 229.446 51.2955 228.912 51.2955C227.639 51.2955 226.503 51.5625 225.503 52.0966C224.514 52.6193 223.73 53.3466 223.151 54.2784C222.582 55.1989 222.298 56.25 222.298 57.4318V74H218.276Z" fill="white"/>
<path d="M138 119C138 117.619 136.881 116.5 135.5 116.5C134.119 116.5 133 117.619 133 119H138ZM501.232 456.768C502.209 457.744 503.791 457.744 504.768 456.768L520.678 440.858C521.654 439.882 521.654 438.299 520.678 437.322C519.701 436.346 518.118 436.346 517.142 437.322L503 451.464L488.858 437.322C487.882 436.346 486.299 436.346 485.322 437.322C484.346 438.299 484.346 439.882 485.322 440.858L501.232 456.768ZM135.5 119H133V263H135.5H138V119H135.5ZM159.5 287V289.5H479V287V284.5H159.5V287ZM503 311H500.5V455H503H505.5V311H503ZM479 287V289.5C490.874 289.5 500.5 299.126 500.5 311H503H505.5C505.5 296.364 493.636 284.5 479 284.5V287ZM135.5 263H133C133 277.636 144.864 289.5 159.5 289.5V287V284.5C147.626 284.5 138 274.874 138 263H135.5Z" fill="white"/>
<rect x="736" y="27" width="212" height="86" rx="15" fill="black" stroke="#3A3A3A" stroke-width="2"/>
<g filter="url(#filter2_d_9_205)">
<path d="M799.167 92.625V87.7083C799.167 85.1004 798.131 82.5992 796.287 80.7551C794.442 78.911 791.941 77.875 789.333 77.875H769.667C767.059 77.875 764.558 78.911 762.713 80.7551C760.869 82.5992 759.833 85.1004 759.833 87.7083V92.625M789.333 58.2083C789.333 63.6391 784.931 68.0417 779.5 68.0417C774.069 68.0417 769.667 63.6391 769.667 58.2083C769.667 52.7775 774.069 48.375 779.5 48.375C784.931 48.375 789.333 52.7775 789.333 58.2083Z" stroke="#F36017" stroke-width="4" stroke-linecap="round" stroke-linejoin="round"/>
</g>
<path d="M847.182 73.2955V57.8182H851.205V84H847.182V79.5682H846.909C846.295 80.8977 845.341 82.0284 844.045 82.9602C842.75 83.8807 841.114 84.3409 839.136 84.3409C837.5 84.3409 836.045 83.983 834.773 83.267C833.5 82.5398 832.5 81.4489 831.773 79.9943C831.045 78.5284 830.682 76.6818 830.682 74.4545V57.8182H834.705V74.1818C834.705 76.0909 835.239 77.6136 836.307 78.75C837.386 79.8864 838.761 80.4545 840.432 80.4545C841.432 80.4545 842.449 80.1989 843.483 79.6875C844.528 79.1761 845.403 78.392 846.108 77.3352C846.824 76.2784 847.182 74.9318 847.182 73.2955ZM877.118 63.6818L873.504 64.7045C873.277 64.1023 872.942 63.517 872.499 62.9489C872.067 62.3693 871.476 61.892 870.726 61.517C869.976 61.142 869.016 60.9545 867.845 60.9545C866.243 60.9545 864.908 61.3239 863.839 62.0625C862.783 62.7898 862.254 63.7159 862.254 64.8409C862.254 65.8409 862.618 66.6307 863.345 67.2102C864.072 67.7898 865.209 68.2727 866.754 68.6591L870.641 69.6136C872.982 70.1818 874.726 71.0511 875.874 72.2216C877.021 73.3807 877.595 74.875 877.595 76.7045C877.595 78.2045 877.163 79.5455 876.3 80.7273C875.447 81.9091 874.254 82.8409 872.72 83.5227C871.186 84.2045 869.402 84.5455 867.368 84.5455C864.697 84.5455 862.487 83.9659 860.737 82.8068C858.987 81.6477 857.879 79.9545 857.413 77.7273L861.232 76.7727C861.595 78.1818 862.283 79.2386 863.294 79.9432C864.317 80.6477 865.652 81 867.3 81C869.175 81 870.663 80.6023 871.766 79.8068C872.879 79 873.436 78.0341 873.436 76.9091C873.436 76 873.118 75.2386 872.482 74.625C871.845 74 870.868 73.5341 869.55 73.2273L865.186 72.2045C862.788 71.6364 861.027 70.7557 859.902 69.5625C858.788 68.358 858.232 66.8523 858.232 65.0455C858.232 63.5682 858.646 62.2614 859.476 61.125C860.317 59.9886 861.459 59.0966 862.902 58.4489C864.357 57.8011 866.004 57.4773 867.845 57.4773C870.436 57.4773 872.47 58.0455 873.947 59.1818C875.436 60.3182 876.493 61.8182 877.118 63.6818ZM894.628 84.5455C892.105 84.5455 889.929 83.9886 888.099 82.875C886.281 81.75 884.878 80.1818 883.889 78.1705C882.912 76.1477 882.423 73.7955 882.423 71.1136C882.423 68.4318 882.912 66.0682 883.889 64.0227C884.878 61.9659 886.253 60.3636 888.014 59.2159C889.787 58.0568 891.855 57.4773 894.219 57.4773C895.582 57.4773 896.929 57.7045 898.259 58.1591C899.588 58.6136 900.798 59.3523 901.889 60.375C902.98 61.3864 903.849 62.7273 904.497 64.3977C905.145 66.0682 905.469 68.125 905.469 70.5682V72.2727H885.287V68.7955H901.378C901.378 67.3182 901.082 66 900.491 64.8409C899.912 63.6818 899.082 62.767 898.003 62.0966C896.935 61.4261 895.673 61.0909 894.219 61.0909C892.616 61.0909 891.23 61.4886 890.06 62.2841C888.901 63.0682 888.009 64.0909 887.384 65.3523C886.759 66.6136 886.446 67.9659 886.446 69.4091V71.7273C886.446 73.7045 886.787 75.3807 887.469 76.7557C888.162 78.1193 889.122 79.1591 890.349 79.875C891.577 80.5795 893.003 80.9318 894.628 80.9318C895.685 80.9318 896.639 80.7841 897.491 80.4886C898.355 80.1818 899.099 79.7273 899.724 79.125C900.349 78.5114 900.832 77.75 901.173 76.8409L905.06 77.9318C904.651 79.25 903.963 80.4091 902.997 81.4091C902.031 82.3977 900.838 83.1705 899.418 83.7273C897.997 84.2727 896.401 84.5455 894.628 84.5455ZM911.588 84V57.8182H915.474V61.7727H915.747C916.224 60.4773 917.088 59.4261 918.338 58.6193C919.588 57.8125 920.997 57.4091 922.565 57.4091C922.861 57.4091 923.23 57.4148 923.673 57.4261C924.116 57.4375 924.452 57.4545 924.679 57.4773V61.5682C924.543 61.5341 924.23 61.483 923.741 61.4148C923.264 61.3352 922.759 61.2955 922.224 61.2955C920.952 61.2955 919.815 61.5625 918.815 62.0966C917.827 62.6193 917.043 63.3466 916.463 64.2784C915.895 65.1989 915.611 66.25 915.611 67.4318V84H911.588Z" fill="white"/>
<rect x="736" y="1" width="269" height="112" rx="15" fill="black" stroke="#3A3A3A" stroke-width="2"/>
<g filter="url(#filter3_d_9_205)">
<path d="M819.167 78.625V73.7083C819.167 71.1004 818.131 68.5992 816.287 66.7551C814.442 64.911 811.941 63.875 809.333 63.875H789.667C787.059 63.875 784.558 64.911 782.713 66.7551C780.869 68.5992 779.833 71.1004 779.833 73.7083V78.625M809.333 44.2083C809.333 49.6391 804.931 54.0417 799.5 54.0417C794.069 54.0417 789.667 49.6391 789.667 44.2083C789.667 38.7775 794.069 34.375 799.5 34.375C804.931 34.375 809.333 38.7775 809.333 44.2083Z" stroke="#F36017" stroke-width="4" stroke-linecap="round" stroke-linejoin="round"/>
</g>
<path d="M888.136 39.0909H892.364V62.2045C892.364 64.5909 891.801 66.7216 890.676 68.5966C889.563 70.4602 887.989 71.9318 885.955 73.0114C883.92 74.0795 881.534 74.6136 878.795 74.6136C876.057 74.6136 873.67 74.0795 871.636 73.0114C869.602 71.9318 868.023 70.4602 866.898 68.5966C865.784 66.7216 865.227 64.5909 865.227 62.2045V39.0909H869.455V61.8636C869.455 63.5682 869.83 65.0852 870.58 66.4148C871.33 67.733 872.398 68.7727 873.784 69.5341C875.182 70.2841 876.852 70.6591 878.795 70.6591C880.739 70.6591 882.409 70.2841 883.807 69.5341C885.205 68.7727 886.273 67.733 887.011 66.4148C887.761 65.0852 888.136 63.5682 888.136 61.8636V39.0909ZM918.805 53.6818L915.192 54.7045C914.964 54.1023 914.629 53.517 914.186 52.9489C913.754 52.3693 913.163 51.892 912.413 51.517C911.663 51.142 910.703 50.9545 909.533 50.9545C907.93 50.9545 906.595 51.3239 905.527 52.0625C904.47 52.7898 903.942 53.7159 903.942 54.8409C903.942 55.8409 904.305 56.6307 905.033 57.2102C905.76 57.7898 906.896 58.2727 908.442 58.6591L912.328 59.6136C914.669 60.1818 916.413 61.0511 917.561 62.2216C918.709 63.3807 919.283 64.875 919.283 66.7045C919.283 68.2045 918.851 69.5455 917.987 70.7273C917.135 71.9091 915.942 72.8409 914.408 73.5227C912.874 74.2045 911.089 74.5455 909.055 74.5455C906.385 74.5455 904.175 73.9659 902.425 72.8068C900.675 71.6477 899.567 69.9545 899.101 67.7273L902.919 66.7727C903.283 68.1818 903.97 69.2386 904.982 69.9432C906.004 70.6477 907.339 71 908.987 71C910.862 71 912.351 70.6023 913.453 69.8068C914.567 69 915.124 68.0341 915.124 66.9091C915.124 66 914.805 65.2386 914.169 64.625C913.533 64 912.555 63.5341 911.237 63.2273L906.874 62.2045C904.476 61.6364 902.714 60.7557 901.589 59.5625C900.476 58.358 899.919 56.8523 899.919 55.0455C899.919 53.5682 900.334 52.2614 901.163 51.125C902.004 49.9886 903.146 49.0966 904.589 48.4489C906.044 47.8011 907.692 47.4773 909.533 47.4773C912.124 47.4773 914.158 48.0455 915.635 49.1818C917.124 50.3182 918.18 51.8182 918.805 53.6818ZM936.315 74.5455C933.793 74.5455 931.616 73.9886 929.787 72.875C927.969 71.75 926.565 70.1818 925.577 68.1705C924.599 66.1477 924.111 63.7955 924.111 61.1136C924.111 58.4318 924.599 56.0682 925.577 54.0227C926.565 51.9659 927.94 50.3636 929.702 49.2159C931.474 48.0568 933.543 47.4773 935.906 47.4773C937.27 47.4773 938.616 47.7045 939.946 48.1591C941.276 48.6136 942.486 49.3523 943.577 50.375C944.668 51.3864 945.537 52.7273 946.185 54.3977C946.832 56.0682 947.156 58.125 947.156 60.5682V62.2727H926.974V58.7955H943.065C943.065 57.3182 942.77 56 942.179 54.8409C941.599 53.6818 940.77 52.767 939.69 52.0966C938.622 51.4261 937.361 51.0909 935.906 51.0909C934.304 51.0909 932.918 51.4886 931.747 52.2841C930.588 53.0682 929.696 54.0909 929.071 55.3523C928.446 56.6136 928.134 57.9659 928.134 59.4091V61.7273C928.134 63.7045 928.474 65.3807 929.156 66.7557C929.849 68.1193 930.81 69.1591 932.037 69.875C933.264 70.5795 934.69 70.9318 936.315 70.9318C937.372 70.9318 938.327 70.7841 939.179 70.4886C940.043 70.1818 940.787 69.7273 941.412 69.125C942.037 68.5114 942.52 67.75 942.861 66.8409L946.747 67.9318C946.338 69.25 945.651 70.4091 944.685 71.4091C943.719 72.3977 942.526 73.1705 941.105 73.7273C939.685 74.2727 938.088 74.5455 936.315 74.5455ZM953.276 74V47.8182H957.162V51.7727H957.435C957.912 50.4773 958.776 49.4261 960.026 48.6193C961.276 47.8125 962.685 47.4091 964.253 47.4091C964.548 47.4091 964.918 47.4148 965.361 47.4261C965.804 47.4375 966.139 47.4545 966.366 47.4773V51.5682C966.23 51.5341 965.918 51.483 965.429 51.4148C964.952 51.3352 964.446 51.2955 963.912 51.2955C962.639 51.2955 961.503 51.5625 960.503 52.0966C959.514 52.6193 958.73 53.3466 958.151 54.2784C957.582 55.1989 957.298 56.25 957.298 57.4318V74H953.276Z" fill="white"/>
<path d="M873 119C873 117.619 871.881 116.5 870.5 116.5C869.119 116.5 868 117.619 868 119H873ZM501.232 456.768C502.209 457.744 503.791 457.744 504.768 456.768L520.678 440.858C521.654 439.882 521.654 438.299 520.678 437.322C519.701 436.346 518.118 436.346 517.142 437.322L503 451.464L488.858 437.322C487.882 436.346 486.299 436.346 485.322 437.322C484.346 438.299 484.346 439.882 485.322 440.858L501.232 456.768ZM870.5 119H868V263H870.5H873V119H870.5ZM846.5 287V284.5H527V287V289.5H846.5V287ZM503 311H500.5V455H503H505.5V311H503ZM527 287V284.5C512.364 284.5 500.5 296.364 500.5 311H503H505.5C505.5 299.126 515.126 289.5 527 289.5V287ZM870.5 263H868C868 274.874 858.374 284.5 846.5 284.5V287V289.5C861.136 289.5 873 277.636 873 263H870.5Z" fill="white"/>
<rect x="369" y="27" width="212" height="86" rx="15" fill="black" stroke="#3A3A3A" stroke-width="2"/>
<g filter="url(#filter4_d_9_205)">
<path d="M432.167 92.625V87.7083C432.167 85.1004 431.131 82.5992 429.287 80.7551C427.442 78.911 424.941 77.875 422.333 77.875H402.667C400.059 77.875 397.558 78.911 395.713 80.7551C393.869 82.5992 392.833 85.1004 392.833 87.7083V92.625M422.333 58.2083C422.333 63.6391 417.931 68.0417 412.5 68.0417C407.069 68.0417 402.667 63.6391 402.667 58.2083C402.667 52.7775 407.069 48.375 412.5 48.375C417.931 48.375 422.333 52.7775 422.333 58.2083Z" stroke="#F36017" stroke-width="4" stroke-linecap="round" stroke-linejoin="round"/>
</g>
<path d="M480.182 73.2955V57.8182H484.205V84H480.182V79.5682H479.909C479.295 80.8977 478.341 82.0284 477.045 82.9602C475.75 83.8807 474.114 84.3409 472.136 84.3409C470.5 84.3409 469.045 83.983 467.773 83.267C466.5 82.5398 465.5 81.4489 464.773 79.9943C464.045 78.5284 463.682 76.6818 463.682 74.4545V57.8182H467.705V74.1818C467.705 76.0909 468.239 77.6136 469.307 78.75C470.386 79.8864 471.761 80.4545 473.432 80.4545C474.432 80.4545 475.449 80.1989 476.483 79.6875C477.528 79.1761 478.403 78.392 479.108 77.3352C479.824 76.2784 480.182 74.9318 480.182 73.2955ZM510.118 63.6818L506.504 64.7045C506.277 64.1023 505.942 63.517 505.499 62.9489C505.067 62.3693 504.476 61.892 503.726 61.517C502.976 61.142 502.016 60.9545 500.845 60.9545C499.243 60.9545 497.908 61.3239 496.839 62.0625C495.783 62.7898 495.254 63.7159 495.254 64.8409C495.254 65.8409 495.618 66.6307 496.345 67.2102C497.072 67.7898 498.209 68.2727 499.754 68.6591L503.641 69.6136C505.982 70.1818 507.726 71.0511 508.874 72.2216C510.021 73.3807 510.595 74.875 510.595 76.7045C510.595 78.2045 510.163 79.5455 509.3 80.7273C508.447 81.9091 507.254 82.8409 505.72 83.5227C504.186 84.2045 502.402 84.5455 500.368 84.5455C497.697 84.5455 495.487 83.9659 493.737 82.8068C491.987 81.6477 490.879 79.9545 490.413 77.7273L494.232 76.7727C494.595 78.1818 495.283 79.2386 496.294 79.9432C497.317 80.6477 498.652 81 500.3 81C502.175 81 503.663 80.6023 504.766 79.8068C505.879 79 506.436 78.0341 506.436 76.9091C506.436 76 506.118 75.2386 505.482 74.625C504.845 74 503.868 73.5341 502.55 73.2273L498.186 72.2045C495.788 71.6364 494.027 70.7557 492.902 69.5625C491.788 68.358 491.232 66.8523 491.232 65.0455C491.232 63.5682 491.646 62.2614 492.476 61.125C493.317 59.9886 494.459 59.0966 495.902 58.4489C497.357 57.8011 499.004 57.4773 500.845 57.4773C503.436 57.4773 505.47 58.0455 506.947 59.1818C508.436 60.3182 509.493 61.8182 510.118 63.6818ZM527.628 84.5455C525.105 84.5455 522.929 83.9886 521.099 82.875C519.281 81.75 517.878 80.1818 516.889 78.1705C515.912 76.1477 515.423 73.7955 515.423 71.1136C515.423 68.4318 515.912 66.0682 516.889 64.0227C517.878 61.9659 519.253 60.3636 521.014 59.2159C522.787 58.0568 524.855 57.4773 527.219 57.4773C528.582 57.4773 529.929 57.7045 531.259 58.1591C532.588 58.6136 533.798 59.3523 534.889 60.375C535.98 61.3864 536.849 62.7273 537.497 64.3977C538.145 66.0682 538.469 68.125 538.469 70.5682V72.2727H518.287V68.7955H534.378C534.378 67.3182 534.082 66 533.491 64.8409C532.912 63.6818 532.082 62.767 531.003 62.0966C529.935 61.4261 528.673 61.0909 527.219 61.0909C525.616 61.0909 524.23 61.4886 523.06 62.2841C521.901 63.0682 521.009 64.0909 520.384 65.3523C519.759 66.6136 519.446 67.9659 519.446 69.4091V71.7273C519.446 73.7045 519.787 75.3807 520.469 76.7557C521.162 78.1193 522.122 79.1591 523.349 79.875C524.577 80.5795 526.003 80.9318 527.628 80.9318C528.685 80.9318 529.639 80.7841 530.491 80.4886C531.355 80.1818 532.099 79.7273 532.724 79.125C533.349 78.5114 533.832 77.75 534.173 76.8409L538.06 77.9318C537.651 79.25 536.963 80.4091 535.997 81.4091C535.031 82.3977 533.838 83.1705 532.418 83.7273C530.997 84.2727 529.401 84.5455 527.628 84.5455ZM544.588 84V57.8182H548.474V61.7727H548.747C549.224 60.4773 550.088 59.4261 551.338 58.6193C552.588 57.8125 553.997 57.4091 555.565 57.4091C555.861 57.4091 556.23 57.4148 556.673 57.4261C557.116 57.4375 557.452 57.4545 557.679 57.4773V61.5682C557.543 61.5341 557.23 61.483 556.741 61.4148C556.264 61.3352 555.759 61.2955 555.224 61.2955C553.952 61.2955 552.815 61.5625 551.815 62.0966C550.827 62.6193 550.043 63.3466 549.463 64.2784C548.895 65.1989 548.611 66.25 548.611 67.4318V84H544.588Z" fill="white"/>
<rect x="369" y="1" width="269" height="112" rx="15" fill="black" stroke="#3A3A3A" stroke-width="2"/>
<g filter="url(#filter5_d_9_205)">
<path d="M452.167 78.625V73.7083C452.167 71.1004 451.131 68.5992 449.287 66.7551C447.442 64.911 444.941 63.875 442.333 63.875H422.667C420.059 63.875 417.558 64.911 415.713 66.7551C413.869 68.5992 412.833 71.1004 412.833 73.7083V78.625M442.333 44.2083C442.333 49.6391 437.931 54.0417 432.5 54.0417C427.069 54.0417 422.667 49.6391 422.667 44.2083C422.667 38.7775 427.069 34.375 432.5 34.375C437.931 34.375 442.333 38.7775 442.333 44.2083Z" stroke="#F36017" stroke-width="4" stroke-linecap="round" stroke-linejoin="round"/>
</g>
<path d="M521.136 39.0909H525.364V62.2045C525.364 64.5909 524.801 66.7216 523.676 68.5966C522.563 70.4602 520.989 71.9318 518.955 73.0114C516.92 74.0795 514.534 74.6136 511.795 74.6136C509.057 74.6136 506.67 74.0795 504.636 73.0114C502.602 71.9318 501.023 70.4602 499.898 68.5966C498.784 66.7216 498.227 64.5909 498.227 62.2045V39.0909H502.455V61.8636C502.455 63.5682 502.83 65.0852 503.58 66.4148C504.33 67.733 505.398 68.7727 506.784 69.5341C508.182 70.2841 509.852 70.6591 511.795 70.6591C513.739 70.6591 515.409 70.2841 516.807 69.5341C518.205 68.7727 519.273 67.733 520.011 66.4148C520.761 65.0852 521.136 63.5682 521.136 61.8636V39.0909ZM551.805 53.6818L548.192 54.7045C547.964 54.1023 547.629 53.517 547.186 52.9489C546.754 52.3693 546.163 51.892 545.413 51.517C544.663 51.142 543.703 50.9545 542.533 50.9545C540.93 50.9545 539.595 51.3239 538.527 52.0625C537.47 52.7898 536.942 53.7159 536.942 54.8409C536.942 55.8409 537.305 56.6307 538.033 57.2102C538.76 57.7898 539.896 58.2727 541.442 58.6591L545.328 59.6136C547.669 60.1818 549.413 61.0511 550.561 62.2216C551.709 63.3807 552.283 64.875 552.283 66.7045C552.283 68.2045 551.851 69.5455 550.987 70.7273C550.135 71.9091 548.942 72.8409 547.408 73.5227C545.874 74.2045 544.089 74.5455 542.055 74.5455C539.385 74.5455 537.175 73.9659 535.425 72.8068C533.675 71.6477 532.567 69.9545 532.101 67.7273L535.919 66.7727C536.283 68.1818 536.97 69.2386 537.982 69.9432C539.004 70.6477 540.339 71 541.987 71C543.862 71 545.351 70.6023 546.453 69.8068C547.567 69 548.124 68.0341 548.124 66.9091C548.124 66 547.805 65.2386 547.169 64.625C546.533 64 545.555 63.5341 544.237 63.2273L539.874 62.2045C537.476 61.6364 535.714 60.7557 534.589 59.5625C533.476 58.358 532.919 56.8523 532.919 55.0455C532.919 53.5682 533.334 52.2614 534.163 51.125C535.004 49.9886 536.146 49.0966 537.589 48.4489C539.044 47.8011 540.692 47.4773 542.533 47.4773C545.124 47.4773 547.158 48.0455 548.635 49.1818C550.124 50.3182 551.18 51.8182 551.805 53.6818ZM569.315 74.5455C566.793 74.5455 564.616 73.9886 562.787 72.875C560.969 71.75 559.565 70.1818 558.577 68.1705C557.599 66.1477 557.111 63.7955 557.111 61.1136C557.111 58.4318 557.599 56.0682 558.577 54.0227C559.565 51.9659 560.94 50.3636 562.702 49.2159C564.474 48.0568 566.543 47.4773 568.906 47.4773C570.27 47.4773 571.616 47.7045 572.946 48.1591C574.276 48.6136 575.486 49.3523 576.577 50.375C577.668 51.3864 578.537 52.7273 579.185 54.3977C579.832 56.0682 580.156 58.125 580.156 60.5682V62.2727H559.974V58.7955H576.065C576.065 57.3182 575.77 56 575.179 54.8409C574.599 53.6818 573.77 52.767 572.69 52.0966C571.622 51.4261 570.361 51.0909 568.906 51.0909C567.304 51.0909 565.918 51.4886 564.747 52.2841C563.588 53.0682 562.696 54.0909 562.071 55.3523C561.446 56.6136 561.134 57.9659 561.134 59.4091V61.7273C561.134 63.7045 561.474 65.3807 562.156 66.7557C562.849 68.1193 563.81 69.1591 565.037 69.875C566.264 70.5795 567.69 70.9318 569.315 70.9318C570.372 70.9318 571.327 70.7841 572.179 70.4886C573.043 70.1818 573.787 69.7273 574.412 69.125C575.037 68.5114 575.52 67.75 575.861 66.8409L579.747 67.9318C579.338 69.25 578.651 70.4091 577.685 71.4091C576.719 72.3977 575.526 73.1705 574.105 73.7273C572.685 74.2727 571.088 74.5455 569.315 74.5455ZM586.276 74V47.8182H590.162V51.7727H590.435C590.912 50.4773 591.776 49.4261 593.026 48.6193C594.276 47.8125 595.685 47.4091 597.253 47.4091C597.548 47.4091 597.918 47.4148 598.361 47.4261C598.804 47.4375 599.139 47.4545 599.366 47.4773V51.5682C599.23 51.5341 598.918 51.483 598.429 51.4148C597.952 51.3352 597.446 51.2955 596.912 51.2955C595.639 51.2955 594.503 51.5625 593.503 52.0966C592.514 52.6193 591.73 53.3466 591.151 54.2784C590.582 55.1989 590.298 56.25 590.298 57.4318V74H586.276Z" fill="white"/>
<path d="M505.5 119C505.5 117.619 504.381 116.5 503 116.5C501.619 116.5 500.5 117.619 500.5 119H505.5ZM501.232 456.768C502.209 457.744 503.791 457.744 504.768 456.768L520.678 440.858C521.654 439.882 521.654 438.299 520.678 437.322C519.701 436.346 518.118 436.346 517.142 437.322L503 451.464L488.858 437.322C487.882 436.346 486.299 436.346 485.322 437.322C484.346 438.299 484.346 439.882 485.322 440.858L501.232 456.768ZM503 119H500.5V455H503H505.5V119H503Z" fill="white"/>
<path d="M220.167 1099.92H180.833C178.118 1099.92 175.917 1102.12 175.917 1104.83V1114.67C175.917 1117.38 178.118 1119.58 180.833 1119.58H220.167C222.882 1119.58 225.083 1117.38 225.083 1114.67V1104.83C225.083 1102.12 222.882 1099.92 220.167 1099.92Z" stroke="#F36017" stroke-width="4" stroke-linecap="round" stroke-linejoin="round"/>
<path d="M220.167 1129.42H180.833C178.118 1129.42 175.917 1131.62 175.917 1134.33V1144.17C175.917 1146.88 178.118 1149.08 180.833 1149.08H220.167C222.882 1149.08 225.083 1146.88 225.083 1144.17V1134.33C225.083 1131.62 222.882 1129.42 220.167 1129.42Z" stroke="#F36017" stroke-width="4" stroke-linecap="round" stroke-linejoin="round"/>
<path d="M185.75 1109.75H185.774" stroke="#F36017" stroke-width="4" stroke-linecap="round" stroke-linejoin="round"/>
<path d="M185.75 1139.25H185.774" stroke="#F36017" stroke-width="4" stroke-linecap="round" stroke-linejoin="round"/>
<path d="M505.5 727C505.5 725.619 504.381 724.5 503 724.5C501.619 724.5 500.5 725.619 500.5 727H505.5ZM261.232 1064.77C262.209 1065.74 263.791 1065.74 264.768 1064.77L280.678 1048.86C281.654 1047.88 281.654 1046.3 280.678 1045.32C279.701 1044.35 278.118 1044.35 277.142 1045.32L263 1059.46L248.858 1045.32C247.882 1044.35 246.299 1044.35 245.322 1045.32C244.346 1046.3 244.346 1047.88 245.322 1048.86L261.232 1064.77ZM503 727H500.5V871H503H505.5V727H503ZM479 895V892.5H287V895V897.5H479V895ZM263 919H260.5V1063H263H265.5V919H263ZM287 895V892.5C272.364 892.5 260.5 904.364 260.5 919H263H265.5C265.5 907.126 275.126 897.5 287 897.5V895ZM503 871H500.5C500.5 882.874 490.874 892.5 479 892.5V895V897.5C493.636 897.5 505.5 885.636 505.5 871H503Z" fill="white"/>
<rect x="621" y="1069" width="254" height="110" rx="15" fill="black" stroke="#3A3A3A" stroke-width="2"/>
<path d="M753.659 1141H749.227L762.045 1106.09H766.409L779.227 1141H774.795L764.364 1111.61H764.091L753.659 1141ZM755.295 1127.36H773.159V1131.11H755.295V1127.36ZM784.665 1141V1106.09H796.46C799.199 1106.09 801.438 1106.59 803.176 1107.57C804.926 1108.55 806.222 1109.88 807.062 1111.55C807.903 1113.22 808.324 1115.08 808.324 1117.14C808.324 1119.19 807.903 1121.06 807.062 1122.74C806.233 1124.43 804.949 1125.77 803.21 1126.77C801.472 1127.76 799.244 1128.25 796.528 1128.25H788.074V1124.5H796.392C798.267 1124.5 799.773 1124.18 800.909 1123.53C802.045 1122.88 802.869 1122.01 803.381 1120.9C803.903 1119.79 804.165 1118.53 804.165 1117.14C804.165 1115.74 803.903 1114.49 803.381 1113.39C802.869 1112.28 802.04 1111.42 800.892 1110.8C799.744 1110.16 798.222 1109.84 796.324 1109.84H788.892V1141H784.665ZM819.361 1106.09V1141H815.134V1106.09H819.361Z" fill="white"/>
<path d="M705.167 1099.92H665.833C663.118 1099.92 660.917 1102.12 660.917 1104.83V1114.67C660.917 1117.38 663.118 1119.58 665.833 1119.58H705.167C707.882 1119.58 710.083 1117.38 710.083 1114.67V1104.83C710.083 1102.12 707.882 1099.92 705.167 1099.92Z" stroke="#F36017" stroke-width="4" stroke-linecap="round" stroke-linejoin="round"/>
<path d="M705.167 1129.42H665.833C663.118 1129.42 660.917 1131.62 660.917 1134.33V1144.17C660.917 1146.88 663.118 1149.08 665.833 1149.08H705.167C707.882 1149.08 710.083 1146.88 710.083 1144.17V1134.33C710.083 1131.62 707.882 1129.42 705.167 1129.42Z" stroke="#F36017" stroke-width="4" stroke-linecap="round" stroke-linejoin="round"/>
<path d="M670.75 1109.75H670.774" stroke="#F36017" stroke-width="4" stroke-linecap="round" stroke-linejoin="round"/>
<path d="M670.75 1139.25H670.774" stroke="#F36017" stroke-width="4" stroke-linecap="round" stroke-linejoin="round"/>
<path d="M505.5 727C505.5 725.619 504.381 724.5 503 724.5C501.619 724.5 500.5 725.619 500.5 727H505.5ZM746.232 1064.77C747.209 1065.74 748.791 1065.74 749.768 1064.77L765.678 1048.86C766.654 1047.88 766.654 1046.3 765.678 1045.32C764.701 1044.35 763.118 1044.35 762.142 1045.32L748 1059.46L733.858 1045.32C732.882 1044.35 731.299 1044.35 730.322 1045.32C729.346 1046.3 729.346 1047.88 730.322 1048.86L746.232 1064.77ZM503 727H500.5V871H503H505.5V727H503ZM527 895V897.5H724V895V892.5H527V895ZM748 919H745.5V1063H748H750.5V919H748ZM724 895V897.5C735.874 897.5 745.5 907.126 745.5 919H748H750.5C750.5 904.364 738.636 892.5 724 892.5V895ZM503 871H500.5C500.5 885.636 512.364 897.5 527 897.5V895V892.5C515.126 892.5 505.5 882.874 505.5 871H503Z" fill="white"/>
<path d="M197.227 1314V1279.09H209.023C211.761 1279.09 214 1279.59 215.739 1280.57C217.489 1281.55 218.784 1282.88 219.625 1284.55C220.466 1286.22 220.886 1288.08 220.886 1290.14C220.886 1292.19 220.466 1294.06 219.625 1295.74C218.795 1297.43 217.511 1298.77 215.773 1299.77C214.034 1300.76 211.807 1301.25 209.091 1301.25H200.636V1297.5H208.955C210.83 1297.5 212.335 1297.18 213.472 1296.53C214.608 1295.88 215.432 1295.01 215.943 1293.9C216.466 1292.79 216.727 1291.53 216.727 1290.14C216.727 1288.74 216.466 1287.49 215.943 1286.39C215.432 1285.28 214.602 1284.42 213.455 1283.8C212.307 1283.16 210.784 1282.84 208.886 1282.84H201.455V1314H197.227ZM227.151 1314V1287.82H231.037V1291.77H231.31C231.787 1290.48 232.651 1289.43 233.901 1288.62C235.151 1287.81 236.56 1287.41 238.128 1287.41C238.423 1287.41 238.793 1287.41 239.236 1287.43C239.679 1287.44 240.014 1287.45 240.241 1287.48V1291.57C240.105 1291.53 239.793 1291.48 239.304 1291.41C238.827 1291.34 238.321 1291.3 237.787 1291.3C236.514 1291.3 235.378 1291.56 234.378 1292.1C233.389 1292.62 232.605 1293.35 232.026 1294.28C231.457 1295.2 231.173 1296.25 231.173 1297.43V1314H227.151ZM245.01 1314V1287.82H249.033V1314H245.01ZM247.055 1283.45C246.271 1283.45 245.595 1283.19 245.027 1282.65C244.47 1282.12 244.192 1281.48 244.192 1280.73C244.192 1279.98 244.47 1279.34 245.027 1278.8C245.595 1278.27 246.271 1278 247.055 1278C247.839 1278 248.51 1278.27 249.067 1278.8C249.635 1279.34 249.919 1279.98 249.919 1280.73C249.919 1281.48 249.635 1282.12 249.067 1282.65C248.51 1283.19 247.839 1283.45 247.055 1283.45ZM277.81 1287.82L268.128 1314H264.037L254.355 1287.82H258.719L265.946 1308.68H266.219L273.446 1287.82H277.81ZM290.027 1314.61C288.368 1314.61 286.862 1314.3 285.51 1313.68C284.158 1313.04 283.084 1312.12 282.288 1310.93C281.493 1309.73 281.095 1308.27 281.095 1306.57C281.095 1305.07 281.391 1303.85 281.982 1302.92C282.572 1301.98 283.362 1301.24 284.351 1300.7C285.339 1300.17 286.43 1299.77 287.624 1299.51C288.828 1299.24 290.038 1299.02 291.254 1298.86C292.845 1298.66 294.135 1298.51 295.124 1298.4C296.124 1298.29 296.851 1298.1 297.305 1297.84C297.771 1297.58 298.004 1297.12 298.004 1296.48V1296.34C298.004 1294.66 297.544 1293.35 296.624 1292.42C295.714 1291.49 294.334 1291.02 292.482 1291.02C290.561 1291.02 289.055 1291.44 287.964 1292.28C286.874 1293.12 286.107 1294.02 285.663 1294.98L281.845 1293.61C282.527 1292.02 283.436 1290.78 284.572 1289.9C285.72 1289 286.97 1288.37 288.322 1288.02C289.686 1287.66 291.027 1287.48 292.345 1287.48C293.186 1287.48 294.152 1287.58 295.243 1287.78C296.345 1287.98 297.408 1288.38 298.43 1288.99C299.464 1289.61 300.322 1290.53 301.004 1291.77C301.686 1293.01 302.027 1294.67 302.027 1296.75V1314H298.004V1310.45H297.8C297.527 1311.02 297.072 1311.63 296.436 1312.28C295.8 1312.93 294.953 1313.48 293.896 1313.93C292.839 1314.39 291.55 1314.61 290.027 1314.61ZM290.641 1311C292.232 1311 293.572 1310.69 294.663 1310.06C295.766 1309.44 296.595 1308.63 297.152 1307.64C297.72 1306.65 298.004 1305.61 298.004 1304.52V1300.84C297.834 1301.05 297.459 1301.23 296.879 1301.4C296.311 1301.56 295.652 1301.7 294.902 1301.83C294.163 1301.94 293.442 1302.05 292.737 1302.14C292.044 1302.22 291.482 1302.28 291.05 1302.34C290.004 1302.48 289.027 1302.7 288.118 1303.01C287.22 1303.3 286.493 1303.75 285.936 1304.35C285.391 1304.94 285.118 1305.75 285.118 1306.77C285.118 1308.17 285.635 1309.23 286.669 1309.94C287.714 1310.65 289.038 1311 290.641 1311ZM320.756 1287.82V1291.23H307.188V1287.82H320.756ZM311.142 1281.55H315.165V1306.5C315.165 1307.64 315.33 1308.49 315.659 1309.06C316 1309.61 316.432 1309.99 316.955 1310.18C317.489 1310.36 318.051 1310.45 318.642 1310.45C319.085 1310.45 319.449 1310.43 319.733 1310.39C320.017 1310.33 320.244 1310.28 320.415 1310.25L321.233 1313.86C320.96 1313.97 320.58 1314.07 320.091 1314.17C319.602 1314.28 318.983 1314.34 318.233 1314.34C317.097 1314.34 315.983 1314.1 314.892 1313.61C313.813 1313.12 312.915 1312.38 312.199 1311.38C311.494 1310.38 311.142 1309.11 311.142 1307.59V1281.55ZM337.503 1314.55C334.98 1314.55 332.804 1313.99 330.974 1312.88C329.156 1311.75 327.753 1310.18 326.764 1308.17C325.787 1306.15 325.298 1303.8 325.298 1301.11C325.298 1298.43 325.787 1296.07 326.764 1294.02C327.753 1291.97 329.128 1290.36 330.889 1289.22C332.662 1288.06 334.73 1287.48 337.094 1287.48C338.457 1287.48 339.804 1287.7 341.134 1288.16C342.463 1288.61 343.673 1289.35 344.764 1290.38C345.855 1291.39 346.724 1292.73 347.372 1294.4C348.02 1296.07 348.344 1298.12 348.344 1300.57V1302.27H328.162V1298.8H344.253C344.253 1297.32 343.957 1296 343.366 1294.84C342.787 1293.68 341.957 1292.77 340.878 1292.1C339.81 1291.43 338.548 1291.09 337.094 1291.09C335.491 1291.09 334.105 1291.49 332.935 1292.28C331.776 1293.07 330.884 1294.09 330.259 1295.35C329.634 1296.61 329.321 1297.97 329.321 1299.41V1301.73C329.321 1303.7 329.662 1305.38 330.344 1306.76C331.037 1308.12 331.997 1309.16 333.224 1309.88C334.452 1310.58 335.878 1310.93 337.503 1310.93C338.56 1310.93 339.514 1310.78 340.366 1310.49C341.23 1310.18 341.974 1309.73 342.599 1309.12C343.224 1308.51 343.707 1307.75 344.048 1306.84L347.935 1307.93C347.526 1309.25 346.838 1310.41 345.872 1311.41C344.906 1312.4 343.713 1313.17 342.293 1313.73C340.872 1314.27 339.276 1314.55 337.503 1314.55ZM396.19 1279.09V1314H392.099L373.077 1286.59H372.736V1314H368.509V1279.09H372.599L391.69 1306.57H392.031V1279.09H396.19ZM415.081 1314.55C412.558 1314.55 410.382 1313.99 408.553 1312.88C406.734 1311.75 405.331 1310.18 404.342 1308.17C403.365 1306.15 402.876 1303.8 402.876 1301.11C402.876 1298.43 403.365 1296.07 404.342 1294.02C405.331 1291.97 406.706 1290.36 408.467 1289.22C410.24 1288.06 412.308 1287.48 414.672 1287.48C416.036 1287.48 417.382 1287.7 418.712 1288.16C420.041 1288.61 421.251 1289.35 422.342 1290.38C423.433 1291.39 424.303 1292.73 424.95 1294.4C425.598 1296.07 425.922 1298.12 425.922 1300.57V1302.27H405.74V1298.8H421.831C421.831 1297.32 421.536 1296 420.945 1294.84C420.365 1293.68 419.536 1292.77 418.456 1292.1C417.388 1291.43 416.126 1291.09 414.672 1291.09C413.07 1291.09 411.683 1291.49 410.513 1292.28C409.354 1293.07 408.462 1294.09 407.837 1295.35C407.212 1296.61 406.899 1297.97 406.899 1299.41V1301.73C406.899 1303.7 407.24 1305.38 407.922 1306.76C408.615 1308.12 409.575 1309.16 410.803 1309.88C412.03 1310.58 413.456 1310.93 415.081 1310.93C416.138 1310.93 417.092 1310.78 417.945 1310.49C418.808 1310.18 419.553 1309.73 420.178 1309.12C420.803 1308.51 421.286 1307.75 421.626 1306.84L425.513 1307.93C425.104 1309.25 424.416 1310.41 423.45 1311.41C422.484 1312.4 421.291 1313.17 419.871 1313.73C418.45 1314.27 416.854 1314.55 415.081 1314.55ZM443.428 1287.82V1291.23H429.859V1287.82H443.428ZM433.814 1281.55H437.837V1306.5C437.837 1307.64 438.001 1308.49 438.331 1309.06C438.672 1309.61 439.104 1309.99 439.626 1310.18C440.161 1310.36 440.723 1310.45 441.314 1310.45C441.757 1310.45 442.121 1310.43 442.405 1310.39C442.689 1310.33 442.916 1310.28 443.087 1310.25L443.905 1313.86C443.632 1313.97 443.251 1314.07 442.763 1314.17C442.274 1314.28 441.655 1314.34 440.905 1314.34C439.768 1314.34 438.655 1314.1 437.564 1313.61C436.484 1313.12 435.587 1312.38 434.871 1311.38C434.166 1310.38 433.814 1309.11 433.814 1307.59V1281.55ZM455.411 1314L447.433 1287.82H451.661L457.32 1307.86H457.592L463.183 1287.82H467.479L473.001 1307.8H473.274L478.933 1287.82H483.161L475.183 1314H471.229L465.501 1293.89H465.092L459.365 1314H455.411ZM498.224 1314.55C495.861 1314.55 493.787 1313.98 492.003 1312.86C490.23 1311.73 488.844 1310.16 487.844 1308.14C486.855 1306.11 486.361 1303.75 486.361 1301.05C486.361 1298.32 486.855 1295.94 487.844 1293.9C488.844 1291.87 490.23 1290.29 492.003 1289.16C493.787 1288.04 495.861 1287.48 498.224 1287.48C500.588 1287.48 502.656 1288.04 504.429 1289.16C506.213 1290.29 507.599 1291.87 508.588 1293.9C509.588 1295.94 510.088 1298.32 510.088 1301.05C510.088 1303.75 509.588 1306.11 508.588 1308.14C507.599 1310.16 506.213 1311.73 504.429 1312.86C502.656 1313.98 500.588 1314.55 498.224 1314.55ZM498.224 1310.93C500.02 1310.93 501.497 1310.47 502.656 1309.55C503.815 1308.63 504.673 1307.42 505.23 1305.92C505.787 1304.42 506.065 1302.8 506.065 1301.05C506.065 1299.3 505.787 1297.66 505.23 1296.15C504.673 1294.64 503.815 1293.42 502.656 1292.49C501.497 1291.56 500.02 1291.09 498.224 1291.09C496.429 1291.09 494.952 1291.56 493.793 1292.49C492.634 1293.42 491.776 1294.64 491.219 1296.15C490.662 1297.66 490.384 1299.3 490.384 1301.05C490.384 1302.8 490.662 1304.42 491.219 1305.92C491.776 1307.42 492.634 1308.63 493.793 1309.55C494.952 1310.47 496.429 1310.93 498.224 1310.93ZM516.229 1314V1287.82H520.115V1291.77H520.388C520.865 1290.48 521.729 1289.43 522.979 1288.62C524.229 1287.81 525.638 1287.41 527.206 1287.41C527.501 1287.41 527.871 1287.41 528.314 1287.43C528.757 1287.44 529.092 1287.45 529.32 1287.48V1291.57C529.183 1291.53 528.871 1291.48 528.382 1291.41C527.905 1291.34 527.399 1291.3 526.865 1291.3C525.592 1291.3 524.456 1291.56 523.456 1292.1C522.467 1292.62 521.683 1293.35 521.104 1294.28C520.536 1295.2 520.251 1296.25 520.251 1297.43V1314H516.229ZM537.838 1304.45L537.77 1299.48H538.588L550.043 1287.82H555.02L542.815 1300.16H542.474L537.838 1304.45ZM534.088 1314V1279.09H538.111V1314H534.088ZM550.724 1314L540.497 1301.05L543.361 1298.25L555.838 1314H550.724Z" fill="white"/>
<circle cx="502.5" cy="842.5" r="22.5" fill="#D9D9D9"/>
<circle cx="502.5" cy="339.5" r="22.5" fill="#D9D9D9"/>
<path d="M503 350C508.523 350 513 345.523 513 340C513 334.477 508.523 330 503 330C497.477 330 493 334.477 493 340C493 345.523 497.477 350 503 350Z" stroke="black" stroke-width="2" stroke-linecap="round" stroke-linejoin="round"/>
<path d="M503 330C500.432 332.696 499 336.277 499 340C499 343.723 500.432 347.304 503 350C505.568 347.304 507 343.723 507 340C507 336.277 505.568 332.696 503 330Z" stroke="black" stroke-width="2" stroke-linecap="round" stroke-linejoin="round"/>
<path d="M493 340H513" stroke="black" stroke-width="2" stroke-linecap="round" stroke-linejoin="round"/>
<path d="M510 842H496C494.895 842 494 842.895 494 844V851C494 852.105 494.895 853 496 853H510C511.105 853 512 852.105 512 851V844C512 842.895 511.105 842 510 842Z" stroke="black" stroke-width="2" stroke-linecap="round" stroke-linejoin="round"/>
<path d="M498 842V838C498 836.674 498.527 835.402 499.464 834.464C500.402 833.527 501.674 833 503 833C504.326 833 505.598 833.527 506.536 834.464C507.473 835.402 508 836.674 508 838V842" stroke="black" stroke-width="2" stroke-linecap="round" stroke-linejoin="round"/>
<path d="M163.625 1306.33H153.792C152.434 1306.33 151.333 1307.43 151.333 1308.79V1318.63C151.333 1319.98 152.434 1321.08 153.792 1321.08H163.625C164.983 1321.08 166.083 1319.98 166.083 1318.63V1308.79C166.083 1307.43 164.983 1306.33 163.625 1306.33Z" stroke="white" stroke-width="4" stroke-linecap="round" stroke-linejoin="round"/>
<path d="M129.208 1306.33H119.375C118.017 1306.33 116.917 1307.43 116.917 1308.79V1318.63C116.917 1319.98 118.017 1321.08 119.375 1321.08H129.208C130.566 1321.08 131.667 1319.98 131.667 1318.63V1308.79C131.667 1307.43 130.566 1306.33 129.208 1306.33Z" stroke="white" stroke-width="4" stroke-linecap="round" stroke-linejoin="round"/>
<path d="M146.417 1271.92H136.583C135.226 1271.92 134.125 1273.02 134.125 1274.37V1284.21C134.125 1285.57 135.226 1286.67 136.583 1286.67H146.417C147.774 1286.67 148.875 1285.57 148.875 1284.21V1274.37C148.875 1273.02 147.774 1271.92 146.417 1271.92Z" stroke="white" stroke-width="4" stroke-linecap="round" stroke-linejoin="round"/>
<path d="M124.292 1306.33V1298.96C124.292 1298.31 124.551 1297.68 125.012 1297.22C125.473 1296.76 126.098 1296.5 126.75 1296.5H156.25C156.902 1296.5 157.527 1296.76 157.988 1297.22C158.449 1297.68 158.708 1298.31 158.708 1298.96V1306.33" stroke="white" stroke-width="4" stroke-linecap="round" stroke-linejoin="round"/>
<path d="M141.5 1296.5V1286.67" stroke="white" stroke-width="4" stroke-linecap="round" stroke-linejoin="round"/>
<defs>
<filter id="filter0_d_9_205" x="11" y="41" width="67" height="67" filterUnits="userSpaceOnUse" color-interpolation-filters="sRGB">
<feFlood flood-opacity="0" result="BackgroundImageFix"/>
<feColorMatrix in="SourceAlpha" type="matrix" values="0 0 0 0 0 0 0 0 0 0 0 0 0 0 0 0 0 0 127 0" result="hardAlpha"/>
<feOffset dy="4"/>
<feGaussianBlur stdDeviation="2"/>
<feComposite in2="hardAlpha" operator="out"/>
<feColorMatrix type="matrix" values="0 0 0 0 0 0 0 0 0 0 0 0 0 0 0 0 0 0 0.25 0"/>
<feBlend mode="normal" in2="BackgroundImageFix" result="effect1_dropShadow_9_205"/>
<feBlend mode="normal" in="SourceGraphic" in2="effect1_dropShadow_9_205" result="shape"/>
</filter>
<filter id="filter1_d_9_205" x="31" y="27" width="67" height="67" filterUnits="userSpaceOnUse" color-interpolation-filters="sRGB">
<feFlood flood-opacity="0" result="BackgroundImageFix"/>
<feColorMatrix in="SourceAlpha" type="matrix" values="0 0 0 0 0 0 0 0 0 0 0 0 0 0 0 0 0 0 127 0" result="hardAlpha"/>
<feOffset dy="4"/>
<feGaussianBlur stdDeviation="2"/>
<feComposite in2="hardAlpha" operator="out"/>
<feColorMatrix type="matrix" values="0 0 0 0 0 0 0 0 0 0 0 0 0 0 0 0 0 0 0.25 0"/>
<feBlend mode="normal" in2="BackgroundImageFix" result="effect1_dropShadow_9_205"/>
<feBlend mode="normal" in="SourceGraphic" in2="effect1_dropShadow_9_205" result="shape"/>
</filter>
<filter id="filter2_d_9_205" x="746" y="41" width="67" height="67" filterUnits="userSpaceOnUse" color-interpolation-filters="sRGB">
<feFlood flood-opacity="0" result="BackgroundImageFix"/>
<feColorMatrix in="SourceAlpha" type="matrix" values="0 0 0 0 0 0 0 0 0 0 0 0 0 0 0 0 0 0 127 0" result="hardAlpha"/>
<feOffset dy="4"/>
<feGaussianBlur stdDeviation="2"/>
<feComposite in2="hardAlpha" operator="out"/>
<feColorMatrix type="matrix" values="0 0 0 0 0 0 0 0 0 0 0 0 0 0 0 0 0 0 0.25 0"/>
<feBlend mode="normal" in2="BackgroundImageFix" result="effect1_dropShadow_9_205"/>
<feBlend mode="normal" in="SourceGraphic" in2="effect1_dropShadow_9_205" result="shape"/>
</filter>
<filter id="filter3_d_9_205" x="766" y="27" width="67" height="67" filterUnits="userSpaceOnUse" color-interpolation-filters="sRGB">
<feFlood flood-opacity="0" result="BackgroundImageFix"/>
<feColorMatrix in="SourceAlpha" type="matrix" values="0 0 0 0 0 0 0 0 0 0 0 0 0 0 0 0 0 0 127 0" result="hardAlpha"/>
<feOffset dy="4"/>
<feGaussianBlur stdDeviation="2"/>
<feComposite in2="hardAlpha" operator="out"/>
<feColorMatrix type="matrix" values="0 0 0 0 0 0 0 0 0 0 0 0 0 0 0 0 0 0 0.25 0"/>
<feBlend mode="normal" in2="BackgroundImageFix" result="effect1_dropShadow_9_205"/>
<feBlend mode="normal" in="SourceGraphic" in2="effect1_dropShadow_9_205" result="shape"/>
</filter>
<filter id="filter4_d_9_205" x="379" y="41" width="67" height="67" filterUnits="userSpaceOnUse" color-interpolation-filters="sRGB">
<feFlood flood-opacity="0" result="BackgroundImageFix"/>
<feColorMatrix in="SourceAlpha" type="matrix" values="0 0 0 0 0 0 0 0 0 0 0 0 0 0 0 0 0 0 127 0" result="hardAlpha"/>
<feOffset dy="4"/>
<feGaussianBlur stdDeviation="2"/>
<feComposite in2="hardAlpha" operator="out"/>
<feColorMatrix type="matrix" values="0 0 0 0 0 0 0 0 0 0 0 0 0 0 0 0 0 0 0.25 0"/>
<feBlend mode="normal" in2="BackgroundImageFix" result="effect1_dropShadow_9_205"/>
<feBlend mode="normal" in="SourceGraphic" in2="effect1_dropShadow_9_205" result="shape"/>
</filter>
<filter id="filter5_d_9_205" x="399" y="27" width="67" height="67" filterUnits="userSpaceOnUse" color-interpolation-filters="sRGB">
<feFlood flood-opacity="0" result="BackgroundImageFix"/>
<feColorMatrix in="SourceAlpha" type="matrix" values="0 0 0 0 0 0 0 0 0 0 0 0 0 0 0 0 0 0 127 0" result="hardAlpha"/>
<feOffset dy="4"/>
<feGaussianBlur stdDeviation="2"/>
<feComposite in2="hardAlpha" operator="out"/>
<feColorMatrix type="matrix" values="0 0 0 0 0 0 0 0 0 0 0 0 0 0 0 0 0 0 0.25 0"/>
<feBlend mode="normal" in2="BackgroundImageFix" result="effect1_dropShadow_9_205"/>
<feBlend mode="normal" in="SourceGraphic" in2="effect1_dropShadow_9_205" result="shape"/>
</filter>
<clipPath id="clip0_9_205">
<rect width="137" height="146" fill="white" transform="translate(434 518)"/>
</clipPath>
</defs>
</svg>
