<?xml version="1.0" encoding="utf-8"?>
<svg version="1.1" x="0px" y="0px" viewBox="0 0 400 100" enable-background="new 0 0 419.528 419.528" id="svg52" width="400px" height="100px" xmlns="http://www.w3.org/2000/svg" xmlns:bx="https://boxy-svg.com">
  <defs id="defs56">
    <style bx:fonts="Inter">@import url(https://fonts.googleapis.com/css2?family=Inter%3Aital%2Cwght%400%2C100..900&amp;display=swap);</style>
    <bx:guide x="190.676" y="101.707" angle="90"/>
  </defs>
  <path d="M 20.127 46.902 C 20.127 47.495 19.646 47.975 19.055 47.975 C 18.463 47.975 17.983 47.495 17.983 46.902 C 17.983 46.311 18.463 45.831 19.055 45.831 C 19.646 45.831 20.127 46.311 20.127 46.902 Z M 34.505 45.727 C 28.181 45.039 25.004 47.544 17.156 53.37 C 10.437 58.358 9.171 54.437 9.419 52.733 C 9.784 50.227 15.566 38.457 21.136 31.173 C 28.027 32.963 33.291 38.663 34.505 45.727 Z M 20.877 46.902 C 20.877 45.895 20.061 45.08 19.055 45.08 C 18.048 45.08 17.232 45.895 17.232 46.902 C 17.232 47.91 18.048 48.726 19.055 48.726 C 20.061 48.726 20.877 47.91 20.877 46.902 Z M 17.213 58.704 L 17.156 62.126 L 22.132 67.655 L 19.738 69.448 L 27.855 76.148 L 24.99 78.127 L 35.38 82.987 L 32.741 85.362 L 44.511 87.331 L 42.676 89.842 L 54.56 88.739 L 53.586 91.597 L 66.726 87.172 L 66.053 90.427 L 77.77 82.057 L 78.13 85.362 L 86.438 73.524 L 88.261 76.986 L 91.961 62.634 L 94.494 64.713 L 93.972 50.606 L 97.34 51.856 L 92.201 39.377 L 95.467 39.389 L 87.256 29.122 L 90.987 28.788 L 79.527 20.786 L 83 18.74 L 69.641 15.161 L 71.897 12.311 L 59.803 12.397 L 59.949 9.147 L 50.557 12.579 L 50.168 9.486 L 42.86 14.709 L 41.289 12.064 L 35.784 18.523 L 34.073 16.191 L 29.461 23.574 L 27.122 21.443 L 23.039 28.788 C 30.719 31.273 36.438 38.037 37.449 46.225 C 37.548 46.246 31.998 53.842 40.119 60.323 C 39.979 59.597 38.63 47.187 51.694 46.284 C 58.194 45.834 63.49 51.563 63.49 58.079 C 63.49 60.074 62.99 61.95 62.116 63.597 C 58.235 70.814 46.31 71.092 42.515 71.053 C 31.51 70.942 17.156 58.498 17.156 58.498 L 17.213 58.704 Z" id="path46" style="fill: rgb(249, 115, 21); fill-opacity: 1;"/>
  <text style="fill: rgb(51, 51, 51); font-family: Inter; font-size: 66.5px; font-weight: 686; letter-spacing: -0.8px; text-transform: capitalize; white-space: pre;" x="116.141" y="73.834">Pangolin</text>
</svg>